# xmcd
#
# Track frame offsets:
#	150
#	18375
#	28275
#	43950
#	59100
#	76650
#	94500
#	112950
#	129375
#	145500
#	162600
#	180825
#	190725
#	206400
#	221550
#	239100
#	256950
#	275400
#	291825
#	307950
#
# Disc length: 4334 seconds
#
# Revision: 1
# Processed by: cddbd v1.5.1PL2 Copyright (c) Steve Scherf et al.
# Submitted via: audiograbber 1.83.01
#
DISCID=2010ec14
DTITLE=Country Hits Today - Cht9810
DYEAR=1998
DGENRE=Karaoke
TTITLE0=Alan Jackson - I'll Go On Loving You
TTITLE1=Steve Wariner And G Brooks - Burnin' The Roadhouse Down
TTITLE2=Leann Rimes - Nothin' New Under The Moon
TTITLE3=Tim Mcgraw - Where The Green Grass Grows
TTITLE4=Wilkinsons - 26 Cents
TTITLE5=Billy Ray Cyrus - Time For Letting Go
TTITLE6=Lorrie Morgan - You'd Think He'd Know Me Better
TTITLE7=Lonestar - Everything's Changed
TTITLE8=Mark Wills - Don't Laugh At Me
TTITLE9=Linda Davis - I Wanna Remember This
TTITLE10=Alan Jackson - I'll Go On Loving You (Vocal)
TTITLE11=Steve Wariner And G Brooks - Burnin' The Roadhouse Down (Vocal)
TTITLE12=Leann Rimes - Nothin' New Under The Moon (Vocal)
TTITLE13=Tim Mcgraw - Where The Green Grass Grows (Vocal)
TTITLE14=Wilkinsons - 26 Cents (Vocal)
TTITLE15=Billy Ray Cyrus - Time For Letting Go (Vocal)
TTITLE16=Lorrie Morgan - You'd Think He'd Know Me Better (Vocal)
TTITLE17=Lonestar - Everything's Changed (Vocal)
TTITLE18=Mark Wills - Don't Laugh At Me (Vocal)
TTITLE19=Linda Davis - I Wanna Remember This (Vocal)
EXTD=
EXTT0=
EXTT1=
EXTT2=
EXTT3=
EXTT4=
EXTT5=
EXTT6=
EXTT7=
EXTT8=
EXTT9=
EXTT10=
EXTT11=
EXTT12=
EXTT13=
EXTT14=
EXTT15=
EXTT16=
EXTT17=
EXTT18=
EXTT19=
PLAYORDER=
